HIERARCHY
ROOT Hips
{
	OFFSET -3.958830 18.904000 13.208200
	CHANNELS 6 Xposition Yposition Zposition Zrotation Yrotation Xrotation 
	JOINT LHipJoint
	{
		OFFSET 0.000000 0.000000 0.000000
		CHANNELS 3 Zrotation Yrotation Xrotation
		JOINT LeftUpLeg
		{
			OFFSET 1.800000 -1.400000 0.085000
			CHANNELS 3 Zrotation Yrotation Xrotation
			JOINT LeftLeg
			{
				OFFSET 2.215000 -6.000000 0.000000
				CHANNELS 3 Zrotation Yrotation Xrotation
				JOINT LeftFoot
				{
					OFFSET 2.500000 -6.900000 0.000000
					CHANNELS 3 Zrotation Yrotation Xrotation
					JOINT LeftToeBase
					{
						OFFSET 0.200000 -0.500000 1.950000
						CHANNELS 3 Zrotation Yrotation Xrotation
						End Site
						{
							OFFSET 0.000000 0.000000 0.000000
						}
					}
				}
			}
		}
	}
	JOINT RHipJoint
	{
		OFFSET 0.000000 0.000000 0.000000
		CHANNELS 3 Zrotation Yrotation Xrotation
		JOINT RightUpLeg
		{
			OFFSET -1.800000 -1.400000 0.085000
			CHANNELS 3 Zrotation Yrotation Xrotation
			JOINT RightLeg
			{
				OFFSET -2.215000 -6.000000 0.000000
				CHANNELS 3 Zrotation Yrotation Xrotation
				JOINT RightFoot
				{
					OFFSET -2.500000 -6.900000 0.000000
					CHANNELS 3 Zrotation Yrotation Xrotation
					JOINT RightToeBase
					{
						OFFSET -0.200000 -0.500000 1.950000
						CHANNELS 3 Zrotation Yrotation Xrotation
						End Site
						{
							OFFSET 0.000000 0.000000 0.000000
						}
					}
				}
			}
		}
	}
	JOINT LowerBack
	{
		OFFSET 0.000000 0.000000 0.000000
		CHANNELS 3 Zrotation Yrotation Xrotation
		JOINT Spine
		{
			OFFSET -0.087000 1.940000 -0.288900
			CHANNELS 3 Zrotation Yrotation Xrotation
			JOINT Spine1
			{
				OFFSET 0.000000 1.950000 0.060000
				CHANNELS 3 Zrotation Yrotation Xrotation
				JOINT Neck
				{
					OFFSET 0.000000 0.000000 0.000000
					CHANNELS 3 Zrotation Yrotation Xrotation
					JOINT Neck1
					{
						OFFSET 0.000000 1.600000 0.340000
						CHANNELS 3 Zrotation Yrotation Xrotation
						JOINT Head
						{
							OFFSET 0.000000 1.667000 -0.240000
							CHANNELS 3 Zrotation Yrotation Xrotation
							End Site
							{
								OFFSET 0.000000 0.000000 0.000000
							}
						}
					}
				}
				JOINT LeftShoulder
				{
					OFFSET 0.000000 0.000000 0.000000
					CHANNELS 3 Zrotation Yrotation Xrotation
					JOINT LeftArm
					{
						OFFSET 2.700000 1.550000 -0.730000
						CHANNELS 3 Zrotation Yrotation Xrotation
						JOINT LeftForeArm
						{
							OFFSET 5.450000 0.000000 0.000000
							CHANNELS 3 Zrotation Yrotation Xrotation
							JOINT LeftHand
							{
								OFFSET 3.450000 0.000000 0.000000
								CHANNELS 3 Zrotation Yrotation Xrotation
								JOINT LeftHandIndex1
								{
									OFFSET 0.750000 0.000000 0.000000
									CHANNELS 3 Zrotation Yrotation Xrotation
									End Site
									{
										OFFSET 0.000000 0.000000 0.000000
									}
								}
							}
						}
					}
				}
				JOINT RightShoulder
				{
					OFFSET 0.000000 0.000000 0.000000
					CHANNELS 3 Zrotation Yrotation Xrotation
					JOINT RightArm
					{
						OFFSET -2.700000 1.550000 -0.730000
						CHANNELS 3 Zrotation Yrotation Xrotation
						JOINT RightForeArm
						{
							OFFSET -5.450000 0.000000 0.000000
							CHANNELS 3 Zrotation Yrotation Xrotation
							JOINT RightHand
							{
								OFFSET -3.450000 0.000000 0.000000
								CHANNELS 3 Zrotation Yrotation Xrotation
								JOINT RightHandIndex1
								{
									OFFSET -0.750000 0.000000 0.000000
									CHANNELS 3 Zrotation Yrotation Xrotation
									End Site
									{
										OFFSET 0.000000 0.000000 0.000000
									}
								}
							}
						}
					}
				}
			}
		}
	}
}
MOTION
Frames: 13
Frame Time: 0.016667
0.158470 16.779450 -9.145990 -1.884009 -0.429795 5.112128 -15.111474 10.775094 4.864717 4.913723 -5.103532 -46.402881 -4.657554 13.166583 47.871776 0.141897 9.258760 1.317056 0.532230 -0.001390 0.632870 18.539116 -11.485237 2.173025 -9.183346 1.248753 2.440680 9.430708 -9.202224 23.199201 -0.785869 -6.009563 2.500752 0.062220 0.155220 0.376620 -4.070556 2.385517 -7.896874 6.633848 7.612800 11.748950 -5.221101 8.554968 6.274043 5.544638 7.157179 -9.736453 14.538721 -3.868940 33.485430 -7.481820 3.946690 -9.343220 -18.642045 -6.935697 5.313035 -43.984088 8.435159 -7.188463 -26.997783 -9.704402 -1.106495 -3.829872 2.877874 0.632130 0.209730 0.015450 0.168750 7.826500 6.807220 3.816439 58.607414 20.619651 0.765751 47.959300 49.319571 16.148236 1.976150 -1.839492 -0.207280 0.108200 -0.106360 -0.403270 
0.162240 16.748080 -9.143360 -2.229138 -0.556490 5.067320 -15.081961 10.618730 4.992975 4.764635 -5.165415 -48.050540 -3.614305 13.327597 50.217301 0.209401 9.651350 1.180052 0.516970 -0.023380 0.625710 18.587821 -11.482448 2.202482 -8.820644 1.157253 3.148301 9.388748 -9.108737 22.469746 -0.791569 -5.988887 2.513719 0.046590 0.151450 0.375100 -4.186916 2.623411 -8.013898 7.782036 7.975048 12.206745 -5.856439 9.126167 5.554857 5.622920 7.179510 -9.727756 14.747965 -4.161631 33.786692 -7.266320 3.678090 -9.444900 -19.260293 -6.703522 5.156054 -44.256398 8.730888 -7.219814 -25.783874 -9.196742 -1.244553 -3.836365 2.846530 0.645220 0.202860 0.014840 0.154020 8.079542 6.775075 3.856636 59.312454 20.049164 0.509991 47.313047 47.165988 15.027902 1.979298 -1.812206 -0.210290 0.107310 -0.088710 -0.409470 
0.158250 16.681120 -9.147910 -1.966546 0.158708 5.380678 -15.100655 10.354997 5.213801 3.997180 -5.673038 -50.652407 -3.276065 13.702025 52.398886 0.290349 10.064880 1.050977 0.507990 -0.036410 0.623330 18.611931 -11.412357 2.221807 -8.431164 0.875834 4.481377 9.120132 -8.776342 20.463110 -0.799638 -5.897611 2.556110 0.039180 0.140980 0.360420 -4.202359 2.855893 -8.128937 7.840426 8.882161 12.653973 -6.052850 10.189884 4.485890 5.618933 7.487057 -9.751328 15.414100 -5.137808 33.518565 -7.125890 3.021300 -9.711800 -20.016911 -6.249773 4.900999 -44.420482 9.370813 -7.485160 -24.431143 -9.065359 -1.314351 -3.819611 2.808549 0.667680 0.186110 0.020200 0.151200 8.620197 6.522985 3.957675 60.121280 18.311943 -0.409249 46.887621 44.113699 13.545566 1.985613 -1.789230 -0.223890 0.116060 -0.086430 -0.417090 
0.158190 16.621160 -9.156340 -1.462522 1.636663 5.010543 -15.136763 10.266657 5.354276 2.721518 -6.370705 -51.905899 -3.121432 13.650104 53.426030 0.308306 10.183833 0.998642 0.494460 -0.071700 0.649070 18.580615 -11.357944 2.284213 -8.040981 0.585352 5.930439 8.781319 -8.537371 18.911509 -0.830559 -5.818445 2.578228 0.009510 0.086970 0.345910 -4.114062 2.859334 -8.279478 7.640717 9.505257 14.188983 -6.038415 11.139071 3.280555 5.539732 8.035498 -10.262552 16.678372 -6.787112 34.762060 -7.285170 2.113820 -10.742250 -21.219225 -6.740452 5.025167 -44.452916 10.226670 -7.920951 -22.884517 -9.365432 -1.370219 -3.771729 2.752775 0.735380 0.133530 0.055780 0.119560 9.710978 7.217440 4.388345 60.217472 16.319144 -2.051661 46.092063 42.019776 12.213241 2.004214 -1.719658 -0.236840 0.116930 -0.075220 -0.447550 
0.145290 16.580830 -9.182860 -1.292254 5.588534 4.020102 -15.161560 10.339910 5.434751 1.292792 -7.503808 -51.428379 -3.109441 12.812103 52.979938 0.246758 9.842968 1.058625 0.531040 -0.051140 0.721360 18.533531 -11.270546 2.425445 -6.664602 0.049989 7.057620 9.321293 -8.636967 18.232351 -0.923700 -5.759829 2.573786 -0.014240 -0.047640 0.342860 -4.047984 2.565127 -8.508928 8.414628 8.945667 17.365336 -6.732391 11.323879 1.876388 5.364935 8.962798 -11.208280 18.704746 -9.204726 36.714340 -6.958870 0.841660 -14.369230 -22.752190 -8.351480 5.480442 -43.524848 10.651774 -8.145903 -22.205992 -9.665380 -1.403938 -3.657075 2.735300 0.849590 0.023260 0.152130 0.072280 11.155030 8.519212 5.193847 60.571154 13.665234 -4.806548 44.562194 41.696275 11.019579 2.025956 -1.629168 -0.210160 0.087140 -0.087830 -0.493570 
0.150970 16.528590 -9.209320 -1.566968 9.021574 3.061902 -15.140073 10.402745 5.513280 -0.433468 -8.631742 -50.877001 -2.744211 11.484727 51.622717 0.139835 9.262976 1.231971 0.535580 -0.059430 0.766590 18.526258 -11.233670 2.571591 -5.201062 -0.431042 8.095609 9.647527 -8.777402 18.129019 -1.015202 -5.722522 2.578887 -0.048440 -0.140710 0.319120 -4.125541 2.378357 -8.721460 10.660040 8.072421 20.747224 -8.073519 11.542768 0.001096 5.191600 9.326113 -12.046074 19.676516 -11.349573 38.693437 -6.574470 -0.488520 -18.197880 -23.476801 -9.017752 5.526693 -43.337052 10.905635 -8.350573 -21.566704 -9.475700 -1.472349 -3.563241 2.658517 0.967370 -0.077880 0.236410 0.042390 11.639858 9.271646 6.212157 61.769597 10.595600 -7.627735 43.671124 42.141607 10.289572 2.043381 -1.520946 -0.216080 0.103560 -0.094400 -0.528130 
0.157870 16.488990 -9.227730 -0.677014 13.340815 1.959193 -15.176412 10.637774 5.503067 -4.575145 -10.270959 -48.159431 -1.386474 8.990336 47.843005 -0.054495 7.966959 1.663069 0.514250 -0.098910 0.797800 18.440737 -11.178628 2.691670 -4.326283 -0.860366 9.351540 9.758514 -9.003416 18.500731 -1.102372 -5.706499 2.575872 -0.110460 -0.224950 0.295350 -4.045632 1.845461 -8.820247 11.061379 6.861820 24.563100 -8.449899 11.185505 -2.104574 4.499661 9.300674 -12.787389 19.559047 -13.277161 41.746094 -4.954810 -2.159230 -22.773970 -24.071126 -9.700988 5.805191 -43.762852 11.647234 -8.983687 -21.411161 -9.769635 -1.518252 -3.465867 2.578930 1.090690 -0.189650 0.321670 0.000440 13.337055 10.172244 6.968158 63.188681 7.523106 -10.869427 39.992555 42.574739 8.739349 2.067422 -1.359511 -0.220270 0.124080 -0.085160 -0.554890 
0.160960 16.399830 -9.229110 -1.775012 12.156826 2.252209 -15.150641 10.569284 5.637283 -4.069197 -9.922345 -50.758072 -1.972323 9.238462 47.429326 -0.046573 7.949496 1.654429 0.483370 -0.140250 0.774510 18.470005 -11.133888 2.720122 -3.864382 -0.683615 9.284281 10.170488 -9.091398 18.787914 -1.111076 -5.696984 2.581074 -0.157160 -0.250980 0.287770 -4.113316 1.880172 -8.928246 13.138877 7.215748 26.116838 -8.751914 12.433826 -4.003885 3.994039 8.554545 -12.561857 17.508720 -13.422979 41.928471 -3.785310 -2.949200 -24.665140 -23.332667 -7.948865 5.150076 -45.863954 12.381594 -9.858965 -20.741518 -9.879807 -1.558853 -3.451028 2.556132 1.121370 -0.231170 0.331850 -0.016430 13.243169 9.438274 7.098581 65.272064 5.635902 -12.208966 38.046898 41.894250 7.862310 2.078991 -1.315090 -0.214160 0.101140 -0.073870 -0.556480 
0.155700 16.325120 -9.246440 -3.367634 7.811647 2.441914 -15.101112 10.753208 5.649773 -2.799610 -8.114765 -53.119674 -2.640495 9.588541 45.635026 -0.104685 7.819558 1.696092 0.405720 -0.259550 0.737930 18.473087 -11.235632 2.689278 -3.034846 0.056060 7.745935 8.145176 -8.811199 22.318174 -1.070192 -5.622651 2.609989 -0.238150 -0.233140 0.278410 -4.138479 1.861410 -8.941524 15.347006 8.040158 28.747385 -9.747751 14.585216 -6.474919 3.508325 7.116557 -12.470469 14.069086 -12.606278 43.135472 -2.176040 -3.419930 -26.525020 -22.350878 -6.016201 4.380276 -48.320007 13.322026 -10.938700 -19.727440 -10.124970 -1.655701 -3.462512 2.473620 1.179400 -0.264050 0.327370 -0.038140 12.847215 9.490667 7.455022 66.792659 4.019350 -13.393718 37.746993 40.837595 7.483088 2.097799 -1.236482 -0.249560 0.113740 -0.031120 -0.564640 
0.140570 16.279330 -9.276130 -3.638946 3.245030 2.099294 -15.151024 11.200460 5.576089 -1.320845 -6.284353 -53.133310 -4.391552 10.443270 43.706831 -0.108050 7.737925 1.717742 0.374140 -0.315210 0.735140 18.349318 -11.235436 2.592366 -3.437707 1.562117 6.216643 6.513624 -8.718025 27.851790 -1.101070 -5.761260 2.565129 -0.301240 -0.269570 0.250850 -3.830765 1.245236 -8.907192 14.544658 9.211070 32.954436 -9.581960 16.604350 -9.656994 3.145708 5.261786 -12.718254 9.721483 -11.357786 47.131588 -0.294810 -3.536250 -29.829440 -21.785595 -4.474693 3.418843 -51.122672 13.146046 -11.423878 -17.352820 -8.530360 -1.904702 -3.431636 2.372311 1.267190 -0.346020 0.370830 -0.045240 13.172943 10.497735 8.247267 67.919229 1.325508 -15.594651 38.306023 40.219082 7.301148 2.130528 -1.151241 -0.266160 0.128700 -0.032620 -0.574170 
0.126450 16.230010 -9.310350 -4.427930 0.940209 1.798723 -15.199251 11.445646 5.593164 0.541794 -5.112119 -53.424008 -5.971717 11.265833 43.126081 -0.024171 7.866451 1.668172 0.406540 -0.264310 0.733740 18.290558 -11.057210 2.554707 -2.812203 3.144061 4.404278 6.170087 -8.852967 33.256306 -1.191070 -6.069865 2.464769 -0.309590 -0.310430 0.228080 -3.651622 0.637336 -8.956746 14.521933 9.010629 36.668035 -9.372123 17.201088 -11.764203 3.059969 2.988579 -12.358589 4.667684 -9.179680 49.382199 2.190000 -3.191380 -32.957140 -22.002927 -2.688463 2.509284 -53.745474 13.354671 -12.739237 -14.243664 -10.830510 -1.762291 -3.352937 2.377427 1.291810 -0.415680 0.410750 -0.018730 13.856382 11.092592 8.269136 67.334928 0.556225 -16.091254 38.969570 38.878052 7.258273 2.171471 -1.147197 -0.234990 0.119320 -0.080450 -0.551790 
0.102660 16.173610 -9.347400 -4.674500 0.072904 1.888400 -15.253712 11.486976 5.659305 1.594662 -4.797622 -54.095102 -7.029695 11.824776 43.021310 -0.029368 8.123512 1.601777 0.335790 -0.363480 0.690050 18.266869 -10.805333 2.554564 -2.441939 5.269413 1.801898 7.112748 -9.608690 38.880181 -1.283806 -6.608586 2.281221 -0.351130 -0.249400 0.217000 -3.534138 0.221385 -9.020793 13.806561 8.844340 39.955650 -9.307021 17.239893 -13.601147 2.970607 1.117179 -11.687574 0.516902 -7.835411 49.040003 4.185580 -3.414600 -35.931460 -22.084446 -0.912133 1.390866 -55.477285 12.849897 -13.370994 -12.413256 -12.134575 -1.784670 -3.386857 2.291386 1.346810 -0.423150 0.392420 -0.030010 14.318996 11.083203 8.142755 67.751863 0.086748 -16.811382 39.869433 38.605995 7.503495 2.168884 -1.073305 -0.299300 0.181320 -0.024240 -0.555680 
0.070080 16.108600 -9.365980 -4.524853 -0.156989 1.887532 -15.352505 11.502402 5.705824 2.298708 -4.709717 -54.742511 -7.905194 12.457299 43.416551 -0.018996 8.432763 1.501005 0.290090 -0.418250 0.654800 18.217660 -10.462925 2.590187 -2.441724 7.369865 -0.482127 8.541551 -10.744624 44.003052 -1.408153 -7.285233 2.050485 -0.362030 -0.201600 0.203700 -3.323117 -0.304828 -9.088814 12.001643 9.483127 42.385842 -7.608080 17.504509 -14.595165 2.722388 -0.291750 -10.772381 -2.643472 -7.108625 48.122451 5.859700 -3.888530 -37.725140 -22.679050 0.927174 0.223869 -56.652998 12.376232 -13.763131 -10.168448 -13.053101 -1.859715 -3.429183 2.226428 1.368010 -0.419270 0.367600 -0.045060 15.675872 10.615757 7.793954 66.358221 -0.820089 -17.272155 41.557539 38.578849 8.095961 2.155927 -1.037462 -0.344260 0.228230 0.021840 -0.554810 
